<svg id="Layer_1" enable-background="new 0 0 512 512" height="512" viewBox="0 0 512 512" width="512" xmlns="http://www.w3.org/2000/svg"><g><path d="m449.391 0h-63.82c-8.284 0-15 6.716-15 15s6.716 15 15 15h63.82c17.981 0 32.609 14.628 32.609 32.609v63.82c0 8.284 6.716 15 15 15s15-6.716 15-15v-63.82c0-34.523-28.086-62.609-62.609-62.609z"/><path d="m15 141.429c8.284 0 15-6.716 15-15v-63.82c0-17.981 14.628-32.609 32.609-32.609h63.82c8.284 0 15-6.716 15-15s-6.716-15-15-15h-63.82c-34.523 0-62.609 28.086-62.609 62.609v63.82c0 8.284 6.716 15 15 15z"/><path d="m126.429 482h-63.82c-17.981 0-32.609-14.628-32.609-32.609v-63.82c0-8.284-6.716-15-15-15s-15 6.716-15 15v63.82c0 34.523 28.086 62.609 62.609 62.609h63.82c8.284 0 15-6.716 15-15s-6.716-15-15-15z"/><path d="m497 370.571c-8.284 0-15 6.716-15 15v63.82c0 17.981-14.628 32.609-32.609 32.609h-63.82c-8.284 0-15 6.716-15 15s6.716 15 15 15h63.82c34.523 0 62.609-28.086 62.609-62.609v-63.82c0-8.284-6.716-15-15-15z"/><path d="m65.563 80.563v350.873c0 8.284 6.716 15 15 15h350.873c8.284 0 15-6.716 15-15v-350.873c0-8.284-6.716-15-15-15h-350.873c-8.284 0-15 6.716-15 15zm30 335.874v-47.328h30.866c3.978 0 7.793-1.58 10.606-4.394l58.131-58.131 36.32 36.319c5.857 5.858 15.355 5.858 21.213 0l71.834-71.833 52.158 52.157c2.813 2.813 6.628 4.394 10.606 4.394h29.139v88.815h-320.873zm320.874-320.874v202.058h-22.926l-58.371-58.371c-5.857-5.858-15.355-5.858-21.213 0l-71.834 71.833-36.32-36.319c-5.857-5.858-15.355-5.858-21.213 0l-64.344 64.344h-24.653v-243.545z"/><path d="m256 210.619c25.396 0 46.057-20.661 46.057-46.057s-20.661-46.057-46.057-46.057-46.057 20.661-46.057 46.057 20.661 46.057 46.057 46.057zm0-62.114c8.854 0 16.057 7.203 16.057 16.057s-7.203 16.057-16.057 16.057-16.057-7.203-16.057-16.057 7.203-16.057 16.057-16.057z"/></g></svg>